<?xml version="1.0" encoding="utf-8"?>
<!-- Generator: Adobe Illustrator 21.1.0, SVG Export Plug-In . SVG Version: 6.00 Build 0)  -->
<svg version="1.1" id="Layer_5" xmlns="http://www.w3.org/2000/svg" xmlns:xlink="http://www.w3.org/1999/xlink" x="0px" y="0px"
	 viewBox="0 0 512 512" style="enable-background:new 0 0 512 512;" xml:space="preserve">
<style type="text/css">
	.st0{stroke:#2CB9EC;stroke-width:16;stroke-miterlimit:10;}
	.st1{fill:#35BAED;}
</style>
<path class="st0" d="M437.5,501H74.5C39.6,501,11,472.4,11,437.5V74.5C11,39.6,39.6,11,74.5,11h363.1c34.9,0,63.5,28.6,63.5,63.5
	v363.1C501,472.4,472.4,501,437.5,501z"/>
<g>
	<path class="st1" d="M414.8,89.6H97.2c-9.4,0-17,7.5-17,16.7v222.4c0,9.2,7.6,16.7,17,16.7h153.1c0,49,40.7,89,90.7,89
		s90.7-39.9,90.7-89V106.3C431.8,97.1,424.2,89.6,414.8,89.6z M97.2,100.8h317.6c3.1,0,5.7,2.5,5.7,5.6v27.8H91.5v-27.8
		C91.5,103.3,94.1,100.8,97.2,100.8z M335.4,343.1l-54.3,53.2c-12.1-13.7-19.5-31.4-19.5-50.9c0-41,32.6-74.7,73.7-77.6V343.1z
		 M289.2,404.2l51.9-50.9l51.9,50.9c-13.9,11.9-32.1,19.1-51.9,19.1C321.2,423.2,303.1,416,289.2,404.2z M401,396.3l-54.3-53.2
		v-75.3c41.1,2.9,73.7,36.5,73.7,77.6C420.5,364.9,413.1,382.6,401,396.3z M341.1,256.4c-46.2,0-84.3,34-89.9,77.8H97.2
		c-3.1,0-5.7-2.5-5.7-5.6V145.2h328.9v157.2C405,275,375.2,256.4,341.1,256.4z"/>
	<path class="st1" d="M131.1,111.9h0.2c3.1,0,5.6,2.5,5.6,5.6v0c0,3.1-2.5,5.6-5.6,5.6h-0.2c-3.1,0-5.6-2.5-5.6-5.6v0
		C125.6,114.4,128.1,111.9,131.1,111.9z"/>
	<path class="st1" d="M108.4,111.9h0.2c3.1,0,5.6,2.5,5.6,5.6v0c0,3.1-2.5,5.6-5.6,5.6h-0.2c-3.1,0-5.6-2.5-5.6-5.6v0
		C102.9,114.4,105.4,111.9,108.4,111.9z"/>
	<path class="st1" d="M153.8,111.9h0.2c3.1,0,5.6,2.5,5.6,5.6v0c0,3.1-2.5,5.6-5.6,5.6h-0.2c-3.1,0-5.6-2.5-5.6-5.6v0
		C148.3,114.4,150.7,111.9,153.8,111.9z"/>
	<path class="st1" d="M199.3,156.4h-79.4c-9.4,0-17,7.5-17,16.7v44.5c0,9.2,7.6,16.7,17,16.7h79.4c9.4,0,17-7.5,17-16.7V173
		C216.3,163.8,208.7,156.4,199.3,156.4z M205,217.5c0,3.1-2.5,5.6-5.7,5.6h-79.4c-3.1,0-5.7-2.5-5.7-5.6V173c0-3.1,2.5-5.6,5.7-5.6
		h79.4c3.1,0,5.7,2.5,5.7,5.6V217.5z"/>
	<path class="st1" d="M199.3,245.3h-79.4c-9.4,0-17,7.5-17,16.7v44.5c0,9.2,7.6,16.7,17,16.7h79.4c9.4,0,17-7.5,17-16.7V262
		C216.3,252.8,208.7,245.3,199.3,245.3z M205,306.5c0,3.1-2.5,5.6-5.7,5.6h-79.4c-3.1,0-5.7-2.5-5.7-5.6V262c0-3.1,2.5-5.6,5.7-5.6
		h79.4c3.1,0,5.7,2.5,5.7,5.6V306.5z"/>
	<path class="st1" d="M165.3,198.5l-13.1-12.8c-2.2-2.1-5.7-2.1-7.9,0L125.6,204c-2.2,2.2-2.2,5.8,0,8l0,0c2.2,2.1,5.7,2.1,7.9,0
		l14.7-14.5l13.1,12.8c2.2,2.1,5.7,2.1,7.9,0l24.4-23.9c2.2-2.2,2.2-5.8,0-8l0,0c-2.2-2.1-5.7-2.1-7.9,0L165.3,198.5z"/>
	<path class="st1" d="M182.3,267.6h-11.3v22.2h-11.3v-11.1h-11.3v11.1h-11.3v-22.2h-11.3v33.4h68.1v-11.1h-11.3V267.6z"/>
	<path class="st1" d="M244.5,156.4h0.2c3.1,0,5.6,2.5,5.6,5.6v0c0,3.1-2.5,5.6-5.6,5.6h-0.2c-3.1,0-5.6-2.5-5.6-5.6v0
		C239,158.9,241.5,156.4,244.5,156.4z"/>
	<path class="st1" d="M267.2,156.4h136.3c3.1,0,5.6,2.5,5.6,5.6v0c0,3.1-2.5,5.6-5.6,5.6H267.2c-3.1,0-5.6-2.5-5.6-5.6v0
		C261.7,158.9,264.2,156.4,267.2,156.4z"/>
	<path class="st1" d="M244.5,178.6h159c3.1,0,5.6,2.5,5.6,5.6v0c0,3.1-2.5,5.6-5.6,5.6h-159c-3.1,0-5.6-2.5-5.6-5.6v0
		C239,181.1,241.5,178.6,244.5,178.6z"/>
	<path class="st1" d="M244.5,200.8h22.9c3.1,0,5.6,2.5,5.6,5.6l0,0c0,3.1-2.5,5.6-5.6,5.6h-22.9c-3.1,0-5.6-2.5-5.6-5.6l0,0
		C239,203.3,241.5,200.8,244.5,200.8z"/>
	<path class="st1" d="M289.9,200.8h113.6c3.1,0,5.6,2.5,5.6,5.6l0,0c0,3.1-2.5,5.6-5.6,5.6H289.9c-3.1,0-5.6-2.5-5.6-5.6l0,0
		C284.4,203.3,286.8,200.8,289.9,200.8z"/>
	<path class="st1" d="M244.5,223.1h91c3.1,0,5.6,2.5,5.6,5.6v0c0,3.1-2.5,5.6-5.6,5.6h-91c-3.1,0-5.6-2.5-5.6-5.6v0
		C239,225.6,241.5,223.1,244.5,223.1z"/>
	<path class="st1" d="M358,223.1h0.2c3.1,0,5.6,2.5,5.6,5.6v0c0,3.1-2.5,5.6-5.6,5.6H358c-3.1,0-5.6-2.5-5.6-5.6v0
		C352.4,225.6,354.9,223.1,358,223.1z"/>
	<path class="st1" d="M380.6,223.1h0.2c3.1,0,5.6,2.5,5.6,5.6v0c0,3.1-2.5,5.6-5.6,5.6h-0.2c-3.1,0-5.6-2.5-5.6-5.6v0
		C375.1,225.6,377.6,223.1,380.6,223.1z"/>
	<path class="st1" d="M403.3,223.1h0.2c3.1,0,5.6,2.5,5.6,5.6v0c0,3.1-2.5,5.6-5.6,5.6h-0.2c-3.1,0-5.6-2.5-5.6-5.6v0
		C397.8,225.6,400.3,223.1,403.3,223.1z"/>
</g>
</svg>
