<?xml version="1.0" encoding="utf-8"?>
<!-- Generator: Adobe Illustrator 21.1.0, SVG Export Plug-In . SVG Version: 6.00 Build 0)  -->
<svg version="1.1" id="Layer_5" xmlns="http://www.w3.org/2000/svg" xmlns:xlink="http://www.w3.org/1999/xlink" x="0px" y="0px"
	 viewBox="0 0 512 512" style="enable-background:new 0 0 512 512;" xml:space="preserve">
<style type="text/css">
	.st0{stroke:#2CB9EC;stroke-width:16;stroke-miterlimit:10;}
	.st1{fill:#2CB9EC;}
</style>
<path class="st0" d="M437.5,501H74.5C39.6,501,11,472.4,11,437.5V74.5C11,39.6,39.6,11,74.5,11h363.1c34.9,0,63.5,28.6,63.5,63.5
	v363.1C501,472.4,472.4,501,437.5,501z"/>
<path class="st1" d="M403.6,243.4v-50.2c0-17.3-14.9-31.4-33.2-31.4h-37.2v-47.7c0-10.4-8.9-18.8-19.9-18.8H189.5
	c-11,0-19.9,8.5-19.9,18.8v22.6h-19.9c-11,0-19.9,8.5-19.9,18.8v6.3h-6.6c-18.3,0-33.2,14.1-33.2,31.4v192.2
	c0,17.3,14.9,31.4,33.2,31.4h203.4c16,0,29.5-10.8,32.6-25.1h11.3c18.3,0,33.2-14.1,33.2-31.4v-16.3h6.6c11,0,19.9-8.5,19.9-18.8
	v-56.5C430.1,254.7,418.2,243.4,403.6,243.4z M416.9,268.6c0,6.9-6,12.6-13.3,12.6V256C410.9,256,416.9,261.6,416.9,268.6z
	 M370.3,174.4c11,0,19.9,8.5,19.9,18.8v87.9h-30.6v-37.7c0-15.2-11.4-27.9-26.6-30.8v-38.3H370.3z M182.9,114.1c0-3.5,3-6.3,6.6-6.3
	h123.6c3.7,0,6.6,2.8,6.6,6.3v98h-30.6v-56.5c0-10.4-8.9-18.8-19.9-18.8h-86.4V114.1z M237.3,212l-0.1-62.8h32.1
	c3.7,0,6.6,2.8,6.6,6.3V212H237.3z M143,155.5c0-3.5,3-6.3,6.6-6.3h53.6L203,212h-60V155.5z M123.1,174.4h6.6V212h-5.2
	c-11,0-21.4-7.5-21.4-18.8C103.1,182.8,112.1,174.4,123.1,174.4z M326.5,404.2H123.1c-11,0-19.9-8.5-19.9-18.8V217.9
	c5.9,4.2,13.4,6.7,21.4,6.7h202c11,0,19.9,8.5,19.9,18.8v37.7h-46.5c-11,0-19.9,8.5-19.9,18.8v25.1c0,10.4,8.9,18.8,19.9,18.8h46.5
	v41.5C346.4,395.8,337.5,404.2,326.5,404.2z M390.3,360.3c0,10.4-8.9,18.8-19.9,18.8h-10.6v-35.2h30.6V360.3z M410.2,331.4H299.9
	c-3.7,0-6.6-2.8-6.6-6.3V300c0-3.5,3-6.3,6.6-6.3h103.7c4.7,0,9.3-1.2,13.3-3.4v34.8C416.9,328.5,413.9,331.4,410.2,331.4z"/>
<circle class="st1" cx="314.3" cy="312.4" r="7.5"/>
</svg>
